<mxfile host="65bd71144e">
    <diagram id="TnpdNzE_JWiUR8cFdGXL" name="Page-1">
        <mxGraphModel dx="249" dy="337" grid="1" gridSize="10" guides="1" tooltips="1" connect="1" arrows="1" fold="1" page="1" pageScale="1" pageWidth="850" pageHeight="1100" math="0" shadow="0">
            <root>
                <mxCell id="0"/>
                <mxCell id="1" parent="0"/>
                <mxCell id="2" value="שם משתמש&lt;div&gt;סיסמא&lt;/div&gt;&lt;div&gt;&lt;br&gt;&lt;/div&gt;" style="whiteSpace=wrap;html=1;aspect=fixed;" vertex="1" parent="1">
                    <mxGeometry x="320" y="80" width="150" height="150" as="geometry"/>
                </mxCell>
                <mxCell id="3" value="אודות הרשמה דף מנוי עזרים" style="rounded=0;whiteSpace=wrap;html=1;" vertex="1" parent="1">
                    <mxGeometry x="320" y="80" width="150" height="25" as="geometry"/>
                </mxCell>
                <mxCell id="4" value="אישור" style="rounded=1;whiteSpace=wrap;html=1;" vertex="1" parent="1">
                    <mxGeometry x="330" y="171" width="50" height="30" as="geometry"/>
                </mxCell>
                <mxCell id="5" value="הרשמה" style="rounded=1;whiteSpace=wrap;html=1;" vertex="1" parent="1">
                    <mxGeometry x="410" y="170" width="50" height="30" as="geometry"/>
                </mxCell>
                <mxCell id="6" value="שם מלא&lt;div&gt;מקצוע&lt;/div&gt;&lt;div&gt;מייל&lt;/div&gt;&lt;div&gt;טלפון&lt;/div&gt;&lt;div&gt;תאריך לידה&lt;/div&gt;&lt;div&gt;אישור דיוור&lt;/div&gt;&lt;div&gt;תאריך הצטרפות&lt;/div&gt;&lt;div&gt;&lt;br&gt;&lt;/div&gt;" style="whiteSpace=wrap;html=1;aspect=fixed;" vertex="1" parent="1">
                    <mxGeometry x="580" y="280" width="180" height="180" as="geometry"/>
                </mxCell>
                <mxCell id="7" value="אודות דף הבית דף מנוי עזרים" style="rounded=0;whiteSpace=wrap;html=1;" vertex="1" parent="1">
                    <mxGeometry x="580" y="280" width="180" height="30" as="geometry"/>
                </mxCell>
                <mxCell id="8" value="אישור" style="rounded=1;whiteSpace=wrap;html=1;" vertex="1" parent="1">
                    <mxGeometry x="637.5" y="430" width="65" height="20" as="geometry"/>
                </mxCell>
                <mxCell id="9" value="" style="endArrow=classic;html=1;rounded=0;" edge="1" parent="1">
                    <mxGeometry width="50" height="50" relative="1" as="geometry">
                        <mxPoint x="456" y="210" as="sourcePoint"/>
                        <mxPoint x="610" y="270" as="targetPoint"/>
                    </mxGeometry>
                </mxCell>
                <mxCell id="10" value="" style="endArrow=classic;html=1;rounded=0;" edge="1" parent="1" target="11">
                    <mxGeometry width="50" height="50" relative="1" as="geometry">
                        <mxPoint x="370" y="210" as="sourcePoint"/>
                        <mxPoint x="420" y="290" as="targetPoint"/>
                    </mxGeometry>
                </mxCell>
                <mxCell id="11" value="הוספת לקוח&lt;div&gt;ניהול לקוח&lt;/div&gt;&lt;div&gt;ניהול מלאי&lt;/div&gt;&lt;div&gt;ניהול יומן&lt;/div&gt;&lt;div&gt;עזרים&lt;/div&gt;" style="whiteSpace=wrap;html=1;aspect=fixed;" vertex="1" parent="1">
                    <mxGeometry x="381" y="280" width="180" height="180" as="geometry"/>
                </mxCell>
                <mxCell id="12" value="אודות דף הבית חיפוש לקוח&amp;nbsp;" style="rounded=0;whiteSpace=wrap;html=1;" vertex="1" parent="1">
                    <mxGeometry x="380" y="280" width="180" height="30" as="geometry"/>
                </mxCell>
                <mxCell id="13" value="שם לקוח&lt;div&gt;טלפון&lt;/div&gt;&lt;div&gt;מייל&lt;/div&gt;&lt;div&gt;תאריך לידה&lt;/div&gt;&lt;div&gt;שירותים&lt;/div&gt;&lt;div&gt;ביקורים&lt;/div&gt;" style="whiteSpace=wrap;html=1;aspect=fixed;" vertex="1" parent="1">
                    <mxGeometry x="660" y="480" width="180" height="180" as="geometry"/>
                </mxCell>
                <mxCell id="14" value="אודות דף הבית דף מנוי עזרים" style="rounded=0;whiteSpace=wrap;html=1;" vertex="1" parent="1">
                    <mxGeometry x="660" y="480" width="180" height="30" as="geometry"/>
                </mxCell>
                <mxCell id="15" value="" style="endArrow=classic;html=1;rounded=0;exitX=0.348;exitY=1.025;exitDx=0;exitDy=0;exitPerimeter=0;entryX=0.362;entryY=-0.132;entryDx=0;entryDy=0;entryPerimeter=0;" edge="1" parent="1" source="11" target="14">
                    <mxGeometry width="50" height="50" relative="1" as="geometry">
                        <mxPoint x="330" y="480" as="sourcePoint"/>
                        <mxPoint x="330" y="510" as="targetPoint"/>
                    </mxGeometry>
                </mxCell>
                <mxCell id="16" value="" style="endArrow=classic;html=1;rounded=0;exitX=0.035;exitY=1.017;exitDx=0;exitDy=0;exitPerimeter=0;entryX=0.152;entryY=-0.12;entryDx=0;entryDy=0;entryPerimeter=0;" edge="1" parent="1" source="11" target="18">
                    <mxGeometry width="50" height="50" relative="1" as="geometry">
                        <mxPoint x="330" y="480" as="sourcePoint"/>
                        <mxPoint x="360" y="480" as="targetPoint"/>
                    </mxGeometry>
                </mxCell>
                <mxCell id="17" value="&lt;p style=&quot;margin: 0cm; line-height: normal; font-size: 12pt; font-family: Aptos, sans-serif; text-align: right; direction: rtl; unicode-bidi: embed;&quot; dir=&quot;RTL&quot; class=&quot;MsoNormal&quot;&gt;&lt;span style=&quot;font-family: Arial, sans-serif;&quot; lang=&quot;HE&quot;&gt;&lt;br&gt;&lt;/span&gt;&lt;/p&gt;&lt;p style=&quot;margin: 0cm; line-height: normal; font-size: 12pt; font-family: Aptos, sans-serif; text-align: right; direction: rtl; unicode-bidi: embed;&quot; dir=&quot;RTL&quot; class=&quot;MsoNormal&quot;&gt;&lt;span style=&quot;font-family: Arial, sans-serif;&quot; lang=&quot;HE&quot;&gt;תאריך ביקור (שמירה של כל הביקורים&lt;/span&gt;&lt;span style=&quot;font-family: Arial, sans-serif;&quot; lang=&quot;HE&quot;&gt;)&lt;/span&gt;&lt;/p&gt;&lt;p style=&quot;margin: 0cm; line-height: normal; font-size: 12pt; font-family: Aptos, sans-serif; text-align: right; direction: rtl; unicode-bidi: embed;&quot; dir=&quot;RTL&quot; class=&quot;MsoNormal&quot;&gt;&lt;span style=&quot;font-family: Arial, sans-serif;&quot; lang=&quot;HE&quot;&gt;זמן הטיפול&lt;/span&gt;&lt;span style=&quot;font-family: Arial, sans-serif;&quot; lang=&quot;HE&quot;&gt;&lt;/span&gt;&lt;/p&gt;&lt;p style=&quot;margin: 0cm; line-height: normal; font-size: 12pt; font-family: Aptos, sans-serif; text-align: right; direction: rtl; unicode-bidi: embed;&quot; dir=&quot;RTL&quot; class=&quot;MsoNormal&quot;&gt;&lt;span style=&quot;font-family: Arial, sans-serif;&quot; lang=&quot;HE&quot;&gt;סיכום ביקור&lt;/span&gt;&lt;span style=&quot;font-family: Arial, sans-serif;&quot; lang=&quot;HE&quot;&gt;&lt;/span&gt;&lt;/p&gt;&lt;p style=&quot;margin: 0cm; line-height: normal; font-size: 12pt; font-family: Aptos, sans-serif; text-align: right; direction: rtl; unicode-bidi: embed;&quot; dir=&quot;RTL&quot; class=&quot;MsoNormal&quot;&gt;&lt;span style=&quot;font-family: Arial, sans-serif;&quot; lang=&quot;HE&quot;&gt;מס׳ צבע (לק/שיער) (שמירה אחורה לא רק את האחרון&lt;/span&gt;&lt;span style=&quot;font-family: Arial, sans-serif;&quot; lang=&quot;HE&quot;&gt;)&lt;/span&gt;&lt;/p&gt;&lt;p style=&quot;margin: 0cm; line-height: normal; font-size: 12pt; font-family: Aptos, sans-serif; text-align: right; direction: rtl; unicode-bidi: embed;&quot; dir=&quot;RTL&quot; class=&quot;MsoNormal&quot;&gt;&lt;span style=&quot;font-family: Arial, sans-serif;&quot; lang=&quot;HE&quot;&gt;בקשות מיוחדות&lt;/span&gt;&lt;span dir=&quot;LTR&quot;&gt;&lt;/span&gt;&lt;/p&gt;" style="whiteSpace=wrap;html=1;aspect=fixed;" vertex="1" parent="1">
                    <mxGeometry x="420" y="480" width="180" height="180" as="geometry"/>
                </mxCell>
                <mxCell id="18" value="אודות דף הבית דף מנוי עזרים" style="rounded=0;whiteSpace=wrap;html=1;" vertex="1" parent="1">
                    <mxGeometry x="420" y="480" width="180" height="30" as="geometry"/>
                </mxCell>
                <mxCell id="19" value="ניהול מלאי" style="whiteSpace=wrap;html=1;aspect=fixed;" vertex="1" parent="1">
                    <mxGeometry x="220" y="480" width="180" height="180" as="geometry"/>
                </mxCell>
                <mxCell id="20" value="אודות דף הבית דף מנוי עזרים" style="rounded=0;whiteSpace=wrap;html=1;" vertex="1" parent="1">
                    <mxGeometry x="220" y="480" width="180" height="30" as="geometry"/>
                </mxCell>
                <mxCell id="21" value="" style="endArrow=classic;html=1;rounded=0;" edge="1" parent="1">
                    <mxGeometry width="50" height="50" relative="1" as="geometry">
                        <mxPoint x="381" y="450" as="sourcePoint"/>
                        <mxPoint x="151" y="480" as="targetPoint"/>
                    </mxGeometry>
                </mxCell>
                <mxCell id="22" value="" style="endArrow=classic;html=1;rounded=0;entryX=0.5;entryY=0;entryDx=0;entryDy=0;" edge="1" parent="1" target="20">
                    <mxGeometry width="50" height="50" relative="1" as="geometry">
                        <mxPoint x="391" y="460" as="sourcePoint"/>
                        <mxPoint x="161" y="490" as="targetPoint"/>
                    </mxGeometry>
                </mxCell>
                <mxCell id="23" value="חיפוש: לפי לקוח&amp;nbsp;&lt;div&gt;לפי תאריך ביקור&lt;/div&gt;&lt;div&gt;&amp;nbsp;&lt;span style=&quot;white-space: pre;&quot;&gt;&#9;&lt;/span&gt;&lt;/div&gt;" style="whiteSpace=wrap;html=1;aspect=fixed;" vertex="1" parent="1">
                    <mxGeometry x="10" y="480" width="180" height="180" as="geometry"/>
                </mxCell>
                <mxCell id="24" value="אודות דף הבית דף מנוי&amp;nbsp;" style="rounded=0;whiteSpace=wrap;html=1;" vertex="1" parent="1">
                    <mxGeometry x="10" y="480" width="180" height="30" as="geometry"/>
                </mxCell>
                <mxCell id="25" value="הקמת אפליקציה לניהול קשרי לקוחות בעסקים קטנים כגון מספרות, בניית ציפורניים ועוד" style="rounded=1;whiteSpace=wrap;html=1;" vertex="1" parent="1">
                    <mxGeometry x="130" y="10" width="540" height="30" as="geometry"/>
                </mxCell>
            </root>
        </mxGraphModel>
    </diagram>
</mxfile>